<svg width="42" height="40" viewBox="0 0 42 40" fill="none" xmlns="http://www.w3.org/2000/svg">
<path fill-rule="evenodd" clip-rule="evenodd" d="M37.6054 32.4129C24.4262 40.9942 5.83199 38.0812 4.65215 22.0474C2.37494 -8.89506 54.22 -4.63598 37.6054 32.4129Z" fill="white"/>
<path fill-rule="evenodd" clip-rule="evenodd" d="M22.3401 24.1707C22.3323 24.1336 22.2908 24.105 22.2155 24.085C22.1818 24.0936 22.1403 24.065 22.065 24.0451C22.0313 24.0536 21.9975 24.0622 21.9898 24.0251C21.9898 24.0251 21.982 23.9879 21.9482 23.9965L21.8808 24.0137C21.8392 23.9851 21.8314 23.948 21.7977 23.9565C21.6809 23.908 21.5641 23.8594 21.4395 23.7737C21.398 23.7452 21.3565 23.7166 21.315 23.6881C21.2319 23.6309 21.1073 23.5453 20.9983 23.5338C20.9646 23.5424 20.9309 23.551 20.9231 23.5139C20.8634 23.5681 20.8634 23.5681 20.8452 23.651C20.8452 23.651 20.8271 23.7338 20.8011 23.7795C20.7752 23.8252 20.783 23.8624 20.7648 23.9452L20.7726 23.9823C20.7726 23.9823 20.7389 23.9909 20.7467 24.0281C20.7467 24.0281 20.7622 24.1023 20.7285 24.1109C20.7285 24.1109 20.6948 24.1195 20.7025 24.1566C20.7181 24.2309 20.6481 24.4051 20.6377 24.5251C20.6377 24.5251 20.6533 24.5994 20.6195 24.6079C20.5936 24.6536 20.5936 24.6536 20.5676 24.6994C20.5676 24.6994 20.5832 24.7736 20.5495 24.7822C20.5495 24.7822 20.5157 24.7908 20.5235 24.8279C20.5313 24.865 20.4794 24.9564 20.4535 25.0022C20.4535 25.0022 20.4691 25.0764 20.4353 25.085C20.4353 25.085 20.4016 25.0936 20.4094 25.1307C20.3834 25.1764 20.3653 25.2593 20.3134 25.3507C20.2874 25.3964 20.2693 25.4792 20.2433 25.5249C20.2174 25.5706 20.1914 25.6163 20.1733 25.6992C20.1733 25.6992 20.1395 25.7078 20.1473 25.7449C20.1473 25.7449 20.1629 25.8192 20.1291 25.8277C20.1291 25.8277 20.0954 25.8363 20.1032 25.8734C20.0695 25.882 20.0772 25.9191 20.0513 25.9648L20.0591 26.002C19.9812 26.1391 19.7762 26.3476 19.7399 26.5133C19.714 26.559 19.6361 26.6962 19.5842 26.7876C19.5064 26.9247 19.4545 27.0161 19.3689 27.1161C19.2832 27.2161 19.2313 27.3075 19.1457 27.4075L19.1535 27.4446C19.1275 27.4903 19.0938 27.4989 19.0678 27.5446C18.99 27.6817 18.8603 27.9103 18.7487 28.056C18.7227 28.1017 18.689 28.1102 18.663 28.1559C18.6371 28.2017 18.5852 28.2931 18.5333 28.3845C18.3101 28.6759 17.9858 28.993 17.7289 29.2929C17.3604 29.7386 17.0101 30.1014 16.5663 30.5271C16.5066 30.5814 16.4469 30.6356 16.421 30.6813C16.3354 30.7813 16.2419 30.8442 16.0888 30.9613C16.0888 30.9613 16.011 31.0984 15.9695 31.0699L15.9617 31.0327C15.8423 31.1413 15.7567 31.2413 15.6295 31.3127C15.3908 31.5298 15.0768 31.727 14.755 31.887C14.5603 31.9755 14.3735 32.1013 14.1373 32.1613C14.1036 32.1698 14.0699 32.1784 14.0699 32.1784C14.0361 32.187 13.9946 32.1584 13.9946 32.1584C13.9609 32.167 13.909 32.2584 13.8674 32.2298L13.8597 32.1927C13.8259 32.2013 13.7662 32.2556 13.6988 32.2727C13.665 32.2813 13.6235 32.2527 13.6235 32.2527L13.5976 32.2984C13.5223 32.2784 13.4704 32.3699 13.3692 32.3956C13.3692 32.3956 13.3614 32.3584 13.3354 32.4042C13.2758 32.4584 13.2758 32.4584 13.242 32.467L13.2161 32.5127C13.1823 32.5213 13.1486 32.5299 13.1149 32.5384L13.0889 32.5841L13.0811 32.547C12.8865 32.6356 12.7256 32.7156 12.5647 32.7956C12.5647 32.7956 12.505 32.8499 12.4972 32.8127L12.4557 32.7842C12.422 32.7927 12.3623 32.847 12.3285 32.8556C12.2948 32.8642 12.2533 32.8356 12.2533 32.8356L12.2273 32.8813L12.2195 32.8442C12.1521 32.8613 12.1261 32.907 12.0924 32.9156C12.0586 32.9242 12.0171 32.8956 12.0171 32.8956C11.9834 32.9042 11.8822 32.9299 11.8225 32.9842C11.7887 32.9928 11.6875 33.0185 11.6538 33.027L11.5863 33.0442C11.5526 33.0528 11.5111 33.0242 11.5111 33.0242C11.4773 33.0328 11.4773 33.0328 11.4436 33.0414C11.4099 33.0499 11.4021 33.0128 11.3683 33.0214L11.3424 33.0671C11.3086 33.0756 11.2671 33.0471 11.2334 33.0557L11.2074 33.1014L11.1996 33.0642C11.1659 33.0728 11.14 33.1185 11.1322 33.0814L11.0906 33.0528C11.0569 33.0614 11.0232 33.07 11.0232 33.07C11.0232 33.07 11.0154 33.0328 10.9894 33.0785C10.9635 33.1242 10.8882 33.1043 10.8207 33.1214C10.787 33.13 10.7195 33.1471 10.678 33.1186C10.569 33.1071 10.4937 33.0872 10.351 33.0843L10.2835 33.1015C10.2835 33.1015 10.2757 33.0643 10.242 33.0729L10.1745 33.09C10.1745 33.09 10.1667 33.0529 10.133 33.0615L10.0655 33.0786C10.024 33.0501 10.0162 33.0129 9.98249 33.0215C9.85791 32.9358 9.68402 32.7844 9.64507 32.5988L9.63728 32.5616C9.6295 32.5245 9.58797 32.4959 9.62171 32.4874C9.61392 32.4502 9.63987 32.4045 9.63208 32.3674C9.62429 32.3303 9.6165 32.2931 9.60871 32.256C9.6035 32.0617 9.5983 31.8675 9.59309 31.6733C9.60346 31.5533 9.62162 31.4704 9.63199 31.3505C9.6242 31.3133 9.61641 31.2762 9.65015 31.2676C9.66831 31.1848 9.69426 31.1391 9.74615 31.0477C9.7721 31.002 9.80584 30.9934 9.79805 30.9563C9.79805 30.9563 9.78247 30.882 9.81621 30.8734C9.86032 30.7449 9.89664 30.5792 9.93296 30.4135C9.92517 30.3764 9.95112 30.3307 9.94333 30.2935C9.96927 30.2478 9.98743 30.165 10.0056 30.0821L9.9978 30.045C10.0238 29.9993 9.98223 29.9707 10.0082 29.925C10.0341 29.8793 9.9926 29.8508 10.0185 29.805L10.0445 29.7593C10.0367 29.7222 10.0289 29.6851 10.0627 29.6765C10.0549 29.6394 10.0886 29.6308 10.0886 29.6308C10.1146 29.5851 10.1068 29.548 10.099 29.5108C10.0912 29.4737 10.1171 29.428 10.1093 29.3908C10.1016 29.3537 10.1275 29.308 10.1535 29.2623C10.1716 29.1795 10.2157 29.0509 10.2261 28.9309C10.252 28.8852 10.2442 28.8481 10.2624 28.7652C10.2546 28.7281 10.2806 28.6824 10.2728 28.6453C10.265 28.6081 10.2909 28.5624 10.2831 28.5253C10.2754 28.4882 10.3013 28.4425 10.3273 28.3968L10.3195 28.3596L10.3454 28.3139C10.3376 28.2768 10.3298 28.2396 10.3636 28.2311C10.3636 28.2311 10.3973 28.2225 10.3895 28.1854C10.3739 28.1111 10.4181 27.9825 10.4622 27.854L10.4544 27.8169C10.4803 27.7712 10.5141 27.7626 10.5063 27.7254C10.5063 27.7254 10.4907 27.6512 10.5244 27.6426C10.5504 27.5969 10.5841 27.5883 10.5763 27.5512L10.5685 27.5141L10.5945 27.4684C10.6204 27.4226 10.6542 27.4141 10.6464 27.3769C10.6464 27.3769 10.6308 27.3027 10.6645 27.2941C10.6827 27.2113 10.7424 27.157 10.8021 27.1027L10.7943 27.0656L10.828 27.057C10.854 27.0113 10.854 27.0113 10.8799 26.9656C10.9059 26.9199 10.9059 26.9199 10.9318 26.8742C10.9578 26.8285 10.9578 26.8285 10.9837 26.7827C11.0174 26.7742 10.9759 26.7456 10.9759 26.7456C11.0019 26.6999 11.0538 26.6085 11.0797 26.5628L11.0719 26.5256L11.1057 26.5171L11.0979 26.4799C11.1238 26.4342 11.1576 26.4257 11.1498 26.3885L11.142 26.3514L11.1679 26.3057C11.1939 26.26 11.1861 26.2228 11.212 26.1771C11.238 26.1314 11.1965 26.1029 11.2224 26.0572L11.2484 26.0115C11.2743 25.9657 11.3262 25.8743 11.3521 25.8286L11.3444 25.7915C11.3781 25.7829 11.4144 25.6172 11.4404 25.5715C11.4663 25.5258 11.5026 25.3601 11.5545 25.2687C11.5805 25.223 11.6142 25.2144 11.6064 25.1773C11.6064 25.1773 11.5908 25.103 11.6246 25.0945C11.6505 25.0488 11.6843 25.0402 11.6765 25.0031C11.7024 24.9574 11.7024 24.9574 11.7284 24.9116C11.7543 24.8659 11.8062 24.7745 11.8659 24.7202L11.8581 24.6831L11.8919 24.6745C11.91 24.5917 11.9879 24.4546 12.0735 24.3546C12.0916 24.2717 12.1513 24.2175 12.211 24.1632C12.2292 24.0803 12.2551 24.0346 12.307 23.9432C12.3849 23.8061 12.4627 23.669 12.5483 23.569C12.5483 23.569 12.6418 23.5061 12.634 23.469C12.6262 23.4319 12.6781 23.3405 12.73 23.249C12.7637 23.2405 12.7897 23.1948 12.7897 23.1948C12.8156 23.1491 12.8416 23.1033 12.9013 23.0491C12.9609 22.9948 13.0388 22.8577 13.0907 22.7663L13.0829 22.7291C13.1685 22.6291 13.2879 22.5206 13.3995 22.3749L13.3917 22.3377C13.4254 22.3292 13.4176 22.292 13.4514 22.2835C13.5033 22.192 13.5552 22.1006 13.6408 22.0006C13.8717 21.7464 14.1702 21.475 14.4427 21.2493C14.6554 21.0779 14.8345 20.915 15.0473 20.7436C15.1667 20.6351 15.2523 20.5351 15.3795 20.4637C15.4391 20.4094 15.5066 20.3922 15.5741 20.3751C15.6338 20.3208 15.6935 20.2665 15.7609 20.2494C15.7947 20.2408 15.8544 20.1865 15.8803 20.1408C15.8803 20.1408 15.8881 20.1779 15.914 20.1322L15.9737 20.078C16.0153 20.1065 16.1346 19.998 16.228 19.9351L16.2618 19.9265C16.3293 19.9094 16.3552 19.8637 16.4227 19.8465L16.4486 19.8008C16.4824 19.7923 16.5836 19.7665 16.6433 19.7123L16.6692 19.6666C16.7029 19.658 16.8301 19.5866 16.8976 19.5694C16.8976 19.5694 16.9054 19.6065 16.9313 19.5608C16.991 19.5066 17.1259 19.4723 17.1778 19.3808C17.2557 19.2437 17.1052 19.2037 17.0403 19.0638C16.991 18.9981 16.9105 18.7839 16.8196 18.6896C16.6977 18.4468 16.6094 18.1954 16.4355 18.0441C16.3525 17.9869 16.3083 18.1155 16.2409 18.1326C16.0618 18.2955 15.8828 18.4583 15.7037 18.6212C15.5246 18.784 15.3378 18.9097 15.1587 19.0725C15.0394 19.1811 14.946 19.244 14.8188 19.3154C14.6916 19.3868 14.5048 19.5125 14.3517 19.6297C14.2583 19.6925 14.1986 19.7468 14.0974 19.7725L14.0714 19.8182C14.0117 19.8725 13.8586 19.9896 13.7237 20.0239C13.6303 20.0868 13.529 20.1125 13.4616 20.1296C13.4278 20.1382 13.42 20.1011 13.3863 20.1096L13.3604 20.1554L13.3526 20.1182L13.3266 20.1639L13.3188 20.1268L13.2929 20.1725L13.2851 20.1354C13.2176 20.1525 13.1579 20.2068 13.0905 20.2239C13.0905 20.2239 13.0308 20.2782 13.023 20.2411C12.9893 20.2497 12.9555 20.2582 12.9218 20.2668L12.8803 20.2382L12.8543 20.284L12.8465 20.2468L12.8206 20.2925L12.8128 20.2554C12.7194 20.3182 12.6078 20.4639 12.4728 20.4982C12.4728 20.4982 12.465 20.4611 12.4391 20.5068C12.4054 20.5154 12.3379 20.5325 12.2964 20.504C12.2626 20.5125 12.2289 20.5211 12.1951 20.5297C12.1614 20.5383 12.1614 20.5383 12.1199 20.5097C12.0861 20.5183 12.0446 20.4897 12.0109 20.4983C11.9771 20.5069 11.9512 20.5526 11.9434 20.5154C11.9097 20.524 11.8681 20.4954 11.8344 20.504C11.8007 20.5126 11.7747 20.5583 11.7669 20.5212C11.6995 20.5383 11.6657 20.5469 11.5905 20.5269L11.523 20.544C11.523 20.544 11.5152 20.5069 11.4815 20.5155C11.4815 20.5155 11.414 20.5326 11.4062 20.4955C11.3309 20.4755 11.2816 20.4098 11.2401 20.3812L11.2064 20.3898C11.1648 20.3613 11.0584 20.1927 11.0091 20.127C11.0091 20.127 11.0428 20.1185 11.0013 20.0899C10.9935 20.0528 11.0273 20.0442 11.0195 20.0071L10.9779 19.9785C10.9961 19.8957 11.022 19.8499 11.0402 19.7671C11.0506 19.6471 11.0609 19.5272 11.0635 19.37C11.0557 19.3329 11.0739 19.2501 11.0739 19.2501C11.0739 19.2501 11.1076 19.2415 11.0999 19.2044L11.0921 19.1672C11.0921 19.1672 11.1258 19.1587 11.118 19.1215L11.1102 19.0844C11.1102 19.0844 11.144 19.0758 11.1362 19.0387C11.1206 18.9644 11.1543 18.9558 11.1725 18.873L11.1647 18.8359C11.1906 18.7902 11.1829 18.753 11.2088 18.7073C11.2425 18.6987 11.2451 18.5416 11.2711 18.4959L11.2633 18.4588C11.2892 18.4131 11.2814 18.376 11.3074 18.3302L11.3593 18.2388C11.3593 18.2388 11.3515 18.2017 11.3437 18.1646C11.3437 18.1646 11.3774 18.156 11.3697 18.1189L11.3619 18.0817C11.3619 18.0817 11.3956 18.0732 11.3878 18.036L11.38 17.9989C11.38 17.9989 11.4138 17.9903 11.406 17.9532L11.3982 17.916C11.3982 17.916 11.4319 17.9075 11.4241 17.8703L11.4163 17.8332C11.4163 17.8332 11.4501 17.8246 11.4423 17.7875C11.4267 17.7132 11.4527 17.6675 11.5046 17.5761C11.5409 17.4104 11.6187 17.2733 11.655 17.1076C11.6473 17.0705 11.6732 17.0248 11.6654 16.9876C11.6914 16.9419 11.6836 16.9048 11.7095 16.8591L11.7614 16.7677C11.7614 16.7677 11.7536 16.7305 11.7458 16.6934C11.7718 16.6477 11.8237 16.5563 11.8496 16.5106L11.8418 16.4734C11.8678 16.4277 11.8937 16.382 11.9197 16.3363C12.0157 16.1164 12.1714 15.8421 12.3349 15.605C12.3608 15.5593 12.3868 15.5136 12.4127 15.4679L12.4049 15.4308L12.4646 15.3765C12.4568 15.3393 12.4828 15.2936 12.5425 15.2394C12.6462 15.0565 13.0381 14.7223 13.2094 14.5223C13.2353 14.4766 13.2353 14.4766 13.2613 14.4309C13.3988 14.2395 13.6116 14.0681 13.7906 13.9052C14.141 13.5424 14.4653 13.2253 14.8572 12.8911L14.8909 12.8825C14.9506 12.8282 15.0362 12.7282 15.0959 12.6739C15.3087 12.5025 15.5475 12.2854 15.7602 12.114C15.794 12.1054 15.7862 12.0683 15.8199 12.0597C15.8537 12.0511 15.8537 12.0511 15.8874 12.0426C16.0742 11.9169 16.2118 11.7255 16.3986 11.5997C16.7386 11.3569 17.1019 11.2255 17.4159 11.0283C17.5093 10.9655 17.6027 10.9026 17.6962 10.8398C17.8155 10.7312 17.909 10.6684 18.0361 10.5969C18.0699 10.5884 18.1295 10.5341 18.2307 10.5084C18.2904 10.4541 18.3579 10.4369 18.4176 10.3827L18.4435 10.3369C18.4773 10.3284 18.4773 10.3284 18.511 10.3198L18.5785 10.3027C18.6122 10.2941 18.7134 10.2684 18.8069 10.2055L18.8328 10.1598C18.8665 10.1512 18.8665 10.1512 18.9003 10.1427L18.9262 10.097C18.96 10.0884 19.0197 10.0341 19.0871 10.017C19.1546 9.99981 19.2558 9.97409 19.3492 9.91123C19.4089 9.85695 19.4764 9.83981 19.5361 9.78553L19.562 9.73982C19.5958 9.73125 19.5958 9.73125 19.6295 9.72267L19.697 9.70553C19.7307 9.69696 19.8319 9.67124 19.8994 9.65409L19.9253 9.60838C19.9591 9.59981 20.0525 9.53696 20.1537 9.51124L20.1797 9.46553C20.2134 9.45696 20.2809 9.43981 20.3483 9.42267C20.4158 9.40552 20.4755 9.35124 20.5352 9.29696C20.5352 9.29696 20.543 9.33409 20.5689 9.28839C20.6027 9.27981 20.6701 9.26267 20.6961 9.21696C20.7298 9.20839 20.7713 9.23695 20.7713 9.23695L20.7973 9.19124L20.8051 9.22837C20.8388 9.2198 20.8985 9.16552 20.9322 9.15695L21.0075 9.17694C21.0412 9.16836 21.0335 9.13123 21.0672 9.12266C21.0672 9.12266 21.075 9.15979 21.1009 9.11408C21.1347 9.10551 21.1425 9.14264 21.1762 9.13407C21.2099 9.1255 21.2696 9.07122 21.3034 9.06264C21.3371 9.05407 21.3786 9.08263 21.4046 9.03693C21.4643 8.98265 21.5058 9.01121 21.581 9.03119C21.6148 9.02262 21.6407 8.97691 21.6485 9.01405C21.6822 9.00548 21.69 9.04261 21.7316 9.07117C21.8406 9.08259 21.9158 9.10257 22.017 9.07685C22.1182 9.05113 22.2039 8.95115 22.2973 8.88829L22.331 8.87972C22.3907 8.82544 22.4841 8.76259 22.5854 8.73687C22.6191 8.7283 22.6866 8.71115 22.7125 8.66544C22.8397 8.59402 22.9668 8.52259 23.094 8.45116C23.1615 8.43402 23.1874 8.38831 23.2134 8.3426C23.3068 8.27975 23.4677 8.19975 23.6286 8.11975C23.722 8.0569 23.8232 8.03118 23.9166 7.96833C24.0101 7.90547 24.1216 7.75978 24.2229 7.73406C24.2566 7.72549 24.2825 7.67978 24.3163 7.67121L24.3915 7.69119C24.459 7.67405 24.4512 7.63691 24.5109 7.58263C24.5109 7.58263 24.5187 7.61977 24.5446 7.57406C24.5706 7.52835 24.6718 7.50264 24.7393 7.48549C24.8068 7.46834 24.8327 7.42264 24.9002 7.40549L24.9261 7.35978C24.9599 7.35121 25.0273 7.33406 25.087 7.27978L25.113 7.23408L25.1208 7.27121L25.1467 7.2255C25.1804 7.21693 25.2142 7.20836 25.2479 7.19978L25.2739 7.15408C25.3076 7.1455 25.3413 7.13693 25.3751 7.12836L25.401 7.08265C25.4348 7.07408 25.5282 7.01122 25.6294 6.9855L25.6553 6.9398C25.6891 6.93123 25.7566 6.91408 25.8162 6.8598L25.9097 6.79695C25.9434 6.78837 25.9771 6.7798 26.0109 6.77123L26.0368 6.72552L26.0446 6.76265C26.1121 6.74551 26.1718 6.69123 26.2314 6.63695C26.2314 6.63695 26.2392 6.67408 26.2652 6.62837C26.2652 6.62837 26.3923 6.55695 26.4261 6.54837C26.5195 6.48552 26.587 6.46838 26.6804 6.40552C26.8413 6.32552 27.01 6.28266 27.2046 6.19409C27.2643 6.13981 27.3318 6.12266 27.3915 6.06838L27.4174 6.02267C27.4511 6.0141 27.4511 6.0141 27.4849 6.00553L27.5524 5.98838L27.5601 6.02551L27.5861 5.97981L27.5939 6.01694L27.6198 5.97123C27.6198 5.97123 27.721 5.94551 27.7885 5.92837C27.856 5.91122 27.9157 5.85694 27.9754 5.80266C27.9754 5.80266 27.9831 5.8398 28.0091 5.79409C28.0091 5.79409 28.1025 5.73124 28.1363 5.72266L28.144 5.7598C28.3724 5.66265 28.6423 5.59407 28.9122 5.52548C28.9122 5.52548 28.92 5.56262 28.9459 5.51691C28.9459 5.51691 28.9459 5.51691 28.9797 5.50834C29.0134 5.49976 29.0134 5.49976 29.0134 5.49976C29.0472 5.49119 29.0731 5.44548 29.1068 5.43691C29.1068 5.43691 29.1146 5.47404 29.1406 5.42834C29.1406 5.42834 29.1743 5.41976 29.2081 5.41119C29.2418 5.40262 29.2755 5.39404 29.3093 5.38547C29.343 5.3769 29.3845 5.40546 29.4105 5.35975C29.4442 5.35118 29.4857 5.37974 29.5117 5.33403C29.5117 5.33403 29.5454 5.32546 29.5792 5.31689C29.6129 5.30831 29.6544 5.33688 29.6544 5.33688C29.6882 5.3283 29.6882 5.3283 29.7219 5.31973C29.7556 5.31116 29.7894 5.30258 29.8231 5.29401C29.8568 5.28544 29.8906 5.27686 29.9243 5.26829C29.9243 5.26829 30.0593 5.234 30.093 5.22543C30.1267 5.21685 30.1605 5.20828 30.1942 5.19971L30.228 5.19113C30.2617 5.18256 30.2876 5.13685 30.3214 5.12828C30.3551 5.11971 30.3629 5.15684 30.3966 5.14827C30.4304 5.1397 30.4304 5.1397 30.4641 5.13112L30.4978 5.12255C30.5316 5.11398 30.5575 5.06827 30.5913 5.0597C30.625 5.05112 30.6665 5.07968 30.7003 5.07111C30.734 5.06254 30.76 5.01683 30.7677 5.05396C30.8352 5.03682 30.9105 5.05681 30.9442 5.04823C31.0117 5.03109 31.0792 5.01394 31.1207 5.0425C31.1207 5.0425 31.1285 5.07964 31.1622 5.07106L31.1959 5.06249C31.1959 5.06249 31.2037 5.09962 31.2375 5.09105L31.2712 5.08248C31.2712 5.08248 31.279 5.11961 31.3127 5.11104L31.3465 5.10247C31.3465 5.10247 31.3543 5.1396 31.388 5.13103C31.4555 5.11388 31.5878 5.2367 31.7046 5.28525L31.7384 5.27667C31.7799 5.30524 31.7721 5.2681 31.8136 5.29666C31.8136 5.29666 31.8214 5.3338 31.8552 5.32522L31.8889 5.31665C32.1225 5.41375 32.2704 5.61083 32.408 5.92789C32.4158 5.96503 32.4314 6.0393 32.4807 6.10499C32.4885 6.14213 32.53 6.17069 32.5378 6.20782C32.5456 6.24495 32.5456 6.24495 32.5456 6.24495C32.5533 6.28209 32.5949 6.31065 32.6027 6.34778C32.6027 6.34778 32.5689 6.35636 32.6105 6.38492C32.6182 6.42205 32.6416 6.53345 32.6157 6.57916C32.5975 6.662 32.5716 6.70771 32.5534 6.79055C32.5352 6.87339 32.5508 6.94766 32.5249 6.99337C32.5067 7.07621 32.5145 7.11334 32.5301 7.18761C32.5456 7.26188 32.5275 7.34472 32.5353 7.38185L32.5768 7.41041C32.5586 7.49326 32.5405 7.5761 32.5638 7.6875L32.5794 7.76177C32.5794 7.76177 32.5457 7.77034 32.5535 7.80747C32.5353 7.89032 32.5509 7.96458 32.5249 8.01029C32.5146 8.13027 32.4964 8.21311 32.486 8.33308L32.5016 8.40735C32.5016 8.40735 32.4679 8.41592 32.4757 8.45306L32.4913 8.52733C32.4913 8.52733 32.4575 8.5359 32.4653 8.57303L32.4809 8.6473C32.4549 8.69301 32.4549 8.69301 32.4705 8.76728C32.4783 8.80441 32.4939 8.87868 32.4679 8.92439C32.4654 9.08149 32.3875 9.21862 32.3771 9.33859C32.3408 9.50427 32.3304 9.62425 32.3201 9.74422C32.3279 9.78136 32.3357 9.81849 32.3434 9.85563C32.3434 9.85563 32.3097 9.8642 32.3175 9.90133C32.3331 9.9756 32.3149 10.0584 32.3045 10.1784C32.3123 10.2156 32.2864 10.2613 32.2942 10.2984C32.302 10.3355 32.3097 10.3727 32.3175 10.4098C32.3175 10.4098 32.2838 10.4184 32.2916 10.4555L32.3072 10.5298C32.2812 10.5755 32.2475 10.5841 32.2553 10.6212L32.2631 10.6583C32.2371 10.704 32.2527 10.7783 32.2267 10.824C32.2345 10.8611 32.2008 10.8697 32.2008 10.8697C32.1748 10.9154 32.1645 11.0354 32.1463 11.1182C32.1541 11.1554 32.1204 11.1639 32.1204 11.1639C32.1282 11.2011 32.1022 11.2468 32.0425 11.3011C32.0244 11.3839 31.9725 11.4753 31.9206 11.5667L31.9284 11.6039C31.9024 11.6496 31.8687 11.6581 31.8765 11.6953L31.892 11.7695C31.8661 11.8153 31.8401 11.861 31.8142 11.9067L31.822 11.9438L31.796 11.9895C31.7779 12.0723 31.7519 12.1181 31.7 12.2095C31.6741 12.2552 31.6222 12.3466 31.604 12.4294C31.5781 12.4751 31.5521 12.5208 31.534 12.6037L31.5418 12.6408C31.5158 12.6865 31.4821 12.6951 31.4899 12.7322L31.5054 12.8065C31.5054 12.8065 31.4717 12.8151 31.4795 12.8522C31.4795 12.8522 31.4873 12.8893 31.4951 12.9265C31.4691 12.9722 31.4354 12.9808 31.4432 13.0179C31.4172 13.0636 31.3731 13.1922 31.3134 13.2464C31.3134 13.2464 31.2797 13.255 31.2875 13.2921C31.2953 13.3293 31.2356 13.3836 31.2174 13.4664C31.1993 13.5492 31.1474 13.6406 31.0955 13.7321C31.0695 13.7778 31.0436 13.8235 31.0176 13.8692C30.9735 13.9977 30.9294 14.1263 30.8516 14.2634C30.8516 14.2634 30.8178 14.272 30.8256 14.3091L30.8334 14.3462C30.8334 14.3462 30.7997 14.3548 30.8075 14.3919C30.8152 14.4291 30.7971 14.5119 30.7452 14.6033C30.7452 14.6033 30.7115 14.6119 30.7192 14.649L30.727 14.6862C30.7011 14.7319 30.6414 14.7862 30.6155 14.8319L30.6232 14.869C30.5973 14.9147 30.6051 14.9519 30.5454 15.0061L30.5194 15.0518C30.5272 15.089 30.5013 15.1347 30.4416 15.189C30.3715 15.3632 30.2678 15.546 30.164 15.7289C29.9486 16.0574 29.7669 16.3773 29.5594 16.743C29.5334 16.7887 29.5075 16.8344 29.4478 16.8887L29.4556 16.9258L29.3959 16.9801C29.4037 17.0172 29.2584 17.1715 29.2402 17.2544C29.248 17.2915 29.248 17.2915 29.222 17.3372C29.2039 17.42 29.2766 17.5971 29.2999 17.7085C29.2999 17.7085 29.3492 17.7742 29.3155 17.7828L29.2896 17.8285L29.3311 17.8571C29.3389 17.8942 29.287 17.9856 29.3025 18.0599L29.3441 18.0884C29.3519 18.1256 29.3 18.217 29.3155 18.2913L29.3571 18.3198C29.3649 18.357 29.313 18.4484 29.3285 18.5226L29.3701 18.5512C29.3779 18.5883 29.3597 18.6712 29.3675 18.7083C29.3493 18.7912 29.3312 18.874 29.3208 18.994C29.3286 19.0311 29.3442 19.1054 29.3182 19.1511C29.326 19.1882 29.2923 19.1968 29.2663 19.2425C29.2663 19.2425 29.2741 19.2796 29.2819 19.3168C29.2819 19.3168 29.2482 19.3253 29.2559 19.3625C29.2715 19.4367 29.2196 19.5281 29.2015 19.611C29.2093 19.6481 29.1833 19.6938 29.1574 19.7395L29.1314 19.7852C29.1392 19.8224 29.147 19.8595 29.1133 19.8681C29.0769 20.0338 28.9654 20.1795 28.9628 20.3366C28.9628 20.3366 28.9783 20.4108 28.9446 20.4194C28.9187 20.4651 28.8849 20.4737 28.8927 20.5108C28.8927 20.5108 28.9083 20.5851 28.8746 20.5937C28.8564 20.6765 28.7967 20.7308 28.7786 20.8136C28.7863 20.8508 28.7526 20.8593 28.7267 20.905C28.7267 20.905 28.6748 20.9965 28.6488 21.0422C28.6566 21.0793 28.6644 21.1164 28.6307 21.125C28.6047 21.1707 28.5528 21.2621 28.5269 21.3078L28.5346 21.345L28.5087 21.3907C28.4828 21.4364 28.4905 21.4735 28.4646 21.5192L28.4386 21.5649C28.4127 21.6106 28.3867 21.6563 28.3608 21.7021C28.3686 21.7392 28.3348 21.7478 28.3089 21.7935C28.283 21.8392 28.3167 21.8306 28.3167 21.8306C28.2648 21.922 28.2466 22.0049 28.161 22.1048C28.1091 22.1963 28.0728 22.3619 28.0365 22.5276C28.0443 22.5648 28.0105 22.5733 27.9846 22.619C27.9924 22.6562 28.0001 22.6933 27.9664 22.7019C27.9742 22.739 27.9405 22.7476 27.9145 22.7933C27.9145 22.7933 27.9301 22.8676 27.8964 22.8761C27.8964 22.8761 27.8626 22.8847 27.8704 22.9218C27.8445 22.9675 27.8522 23.0047 27.8263 23.0504C27.8003 23.0961 27.7744 23.1418 27.7562 23.2246C27.7562 23.2246 27.7718 23.2989 27.7381 23.3075C27.7121 23.3532 27.6862 23.3989 27.668 23.4817C27.668 23.4817 27.6836 23.556 27.6499 23.5646C27.598 23.656 27.5383 23.7103 27.4786 23.7646C27.4267 23.856 27.4008 23.9017 27.3411 23.956C27.2554 24.0559 27.2373 24.1388 27.1594 24.2759L27.1672 24.313C27.0556 24.4587 26.9856 24.633 26.9077 24.7701C26.8558 24.8615 26.7702 24.9615 26.7521 25.0444C26.7598 25.0815 26.7261 25.0901 26.7002 25.1358C26.6742 25.1815 26.5886 25.2815 26.5367 25.3729C26.4251 25.5186 26.3057 25.6271 26.1941 25.7728C26.1682 25.8185 26.1682 25.8185 26.1422 25.8642C26.1085 25.8728 26.0826 25.9185 26.0826 25.9185C26.0566 25.9642 26.0307 26.0099 25.971 26.0642C25.9372 26.0728 25.9113 26.1185 25.9113 26.1185C25.8594 26.2099 25.6881 26.4099 25.5765 26.5556C25.5506 26.6013 25.5506 26.6013 25.5247 26.647C25.4987 26.6927 25.465 26.7013 25.439 26.747L25.4468 26.7841C25.4209 26.8298 25.3534 26.847 25.3274 26.8927C25.3015 26.9384 25.2159 27.0384 25.1302 27.1384L25.138 27.1755C25.0524 27.2755 24.9071 27.4297 24.8214 27.5297C24.6502 27.7297 24.5126 27.9211 24.3414 28.1211C24.3154 28.1668 24.2817 28.1754 24.2557 28.2211C24.222 28.2296 24.2298 28.2668 24.2038 28.3125C23.8613 28.7124 23.4772 29.0838 23.0257 29.4724C22.9063 29.5809 22.7948 29.7266 22.6339 29.8066C22.5404 29.8695 22.4055 29.9038 22.2861 30.0123C22.2264 30.0666 22.1667 30.1209 22.0993 30.138C22.0059 30.2009 21.9124 30.2637 21.819 30.3266C21.7853 30.3352 21.7853 30.3352 21.7853 30.3352C21.6918 30.398 21.6322 30.4523 21.5569 30.4323C21.5232 30.4409 21.4635 30.4952 21.396 30.5123C21.3623 30.5209 21.3623 30.5209 21.3285 30.5294C21.2948 30.538 21.2948 30.538 21.2948 30.538C21.2611 30.5466 21.2351 30.5923 21.2014 30.6009C21.1676 30.6094 21.1598 30.5723 21.1261 30.5809C21.0249 30.6066 20.9159 30.5952 20.8069 30.5838C20.7732 30.5923 20.6979 30.5724 20.6642 30.5809C20.6304 30.5895 20.6045 30.6352 20.5707 30.6438C20.537 30.6524 20.5292 30.6152 20.4955 30.6238C20.4617 30.6324 20.3865 30.6124 20.3527 30.621L20.2853 30.6381C20.2853 30.6381 20.2775 30.601 20.2437 30.6095C20.2437 30.6095 20.1763 30.6267 20.1685 30.5896C20.127 30.561 20.1269 30.561 20.0854 30.5324C20.0102 30.5124 19.8622 30.3154 19.8389 30.204C19.8311 30.1668 19.7973 30.1754 19.8233 30.1297C19.8155 30.0926 19.8414 30.0468 19.8336 30.0097L19.7921 29.9812C19.7921 29.9812 19.8259 29.9726 19.8181 29.9354C19.8103 29.8983 19.8103 29.8983 19.8362 29.8526C19.8362 29.8526 19.8206 29.7783 19.8544 29.7698C19.8803 29.7241 19.9478 29.7069 19.966 29.6241L19.9582 29.5869C19.9582 29.5869 19.9919 29.5784 19.9841 29.5412C19.9841 29.5412 19.9685 29.467 20.0023 29.4584C20.0023 29.4584 20.036 29.4498 20.0282 29.4127C20.062 29.4041 20.0542 29.367 20.0801 29.3213C20.1061 29.2756 20.1242 29.1927 20.1761 29.1013C20.2462 28.927 20.3759 28.6985 20.5057 28.47C20.5576 28.3786 20.6095 28.2871 20.6536 28.1586C20.6458 28.1215 20.6795 28.1129 20.7055 28.0672C20.7055 28.0672 20.6899 27.9929 20.7236 27.9843C20.7496 27.9386 20.7755 27.8929 20.7937 27.8101C20.7937 27.8101 20.7781 27.7358 20.8118 27.7272C20.8118 27.7272 20.8456 27.7187 20.8378 27.6815C20.8222 27.6073 20.9416 27.4987 20.9935 27.4073C21.0454 27.3159 21.0298 27.2416 21.0817 27.1502C21.1518 26.9759 21.1881 26.8103 21.3671 26.6474C21.3697 26.4903 21.4553 26.3903 21.5332 26.2532C21.5591 26.2075 21.5929 26.1989 21.5851 26.1618C21.5851 26.1618 21.5695 26.0875 21.6032 26.0789C21.6292 26.0332 21.6629 26.0247 21.6551 25.9875C21.6551 25.9875 21.6396 25.9133 21.6733 25.9047C21.6915 25.8219 21.7511 25.7676 21.8108 25.7133L21.803 25.6762C21.8368 25.6676 21.8549 25.5847 21.8809 25.539C21.925 25.4105 21.995 25.2362 22.0392 25.1077L22.0314 25.0706C22.0573 25.0248 22.0911 25.0163 22.0833 24.9791L22.0755 24.942L22.1014 24.8963C22.0936 24.8592 22.0858 24.822 22.1196 24.8135C22.1196 24.8135 22.1533 24.8049 22.1455 24.7677C22.13 24.6935 22.1818 24.6021 22.2 24.5192C22.1922 24.4821 22.226 24.4735 22.2519 24.4278L22.2363 24.3535C22.2623 24.3078 22.2623 24.3078 22.2804 24.225L22.2726 24.1879L22.2986 24.1422C22.2908 24.105 22.283 24.0679 22.3168 24.0593C22.309 24.0222 22.3427 24.0136 22.3427 24.0136L22.3349 23.9765C22.3271 23.9393 22.3609 23.9308 22.3868 23.8851L22.3712 23.8108C22.3557 24.245 22.4232 24.2278 22.3401 24.1707ZM17.5303 13.2678C17.4965 13.2764 17.4031 13.3393 17.3772 13.385C17.2837 13.4478 17.1903 13.5107 17.1228 13.5278C17.0294 13.5907 16.9957 13.5993 16.9697 13.645C16.936 13.6535 16.9101 13.6992 16.8841 13.7449C16.7907 13.8078 16.6713 13.9164 16.5779 13.9792C16.3651 14.1506 16.0667 14.422 15.9136 14.5392L15.8876 14.5849C15.7345 14.702 15.6151 14.8106 15.5036 14.9563C15.4439 15.0105 15.3764 15.0277 15.3167 15.082C15.283 15.0905 15.2908 15.1277 15.2648 15.1734C14.8626 15.6276 14.2839 16.0876 14.0088 16.4704C13.9829 16.5161 13.9492 16.5247 13.9232 16.5704C13.8635 16.6246 13.7935 16.7989 13.7675 16.8446C13.7416 16.8903 13.7416 16.8903 13.7156 16.936C13.6897 16.9817 13.6196 17.156 13.6196 17.156C13.5859 17.1645 13.6274 17.1931 13.6274 17.1931C13.6093 17.276 13.5496 17.3302 13.4899 17.3845C13.4639 17.4302 13.4458 17.5131 13.412 17.5216L13.3783 17.5302C13.3446 17.5388 13.3861 17.5673 13.3861 17.5673C13.3342 17.6588 13.3082 17.7045 13.2486 17.7587L13.2563 17.7959C13.2382 17.8787 13.2122 17.9244 13.1603 18.0158C13.1603 18.0158 13.1681 18.053 13.1759 18.0901C13.1759 18.0901 13.1422 18.0987 13.15 18.1358C13.15 18.1358 13.1578 18.1729 13.1656 18.2101C13.1474 18.2929 13.0877 18.3472 13.137 18.4129C13.3135 18.4072 13.4251 18.2615 13.5522 18.19C13.6119 18.1358 13.7131 18.11 13.7728 18.0558C13.9934 17.9215 14.1984 17.7129 14.4449 17.533C14.7434 17.2616 15.0158 17.0359 15.3065 16.7273C15.3921 16.6273 15.3584 16.6359 15.3921 16.6273C15.4258 16.6188 15.4518 16.5731 15.4518 16.5731C15.4777 16.5274 15.4777 16.5274 15.5037 16.4816C15.5296 16.4359 15.5971 16.4188 15.6231 16.3731C15.675 16.2817 15.6853 16.1617 15.745 16.1074C15.771 16.0617 15.771 16.0617 15.8047 16.0531C15.8566 15.9617 15.9163 15.9074 15.9682 15.816C16.0201 15.7246 16.1057 15.6246 16.1498 15.4961C16.2017 15.4047 16.2796 15.2675 16.3315 15.1761C16.4093 15.039 16.4197 14.919 16.5131 14.8562C16.5909 14.7191 16.7518 14.6391 16.8375 14.5391C16.9231 14.4391 17.0009 14.302 17.0866 14.202C17.1982 14.0563 17.3435 13.902 17.3954 13.8106C17.3954 13.8106 17.4291 13.802 17.4213 13.7649C17.481 13.7106 17.4732 13.6735 17.4992 13.6278C17.577 13.4906 17.6704 13.4278 17.7223 13.3364C17.7483 13.2907 17.8417 13.2278 17.7924 13.1621C17.7171 13.1421 17.6237 13.205 17.5303 13.2678ZM30.9003 7.21063L30.825 7.19064C30.7575 7.20779 30.7316 7.25349 30.6641 7.27064L30.5889 7.25065C30.3864 7.30209 30.184 7.35353 29.9556 7.45068C29.8882 7.46782 29.8544 7.47639 29.787 7.49354C29.7532 7.50211 29.6935 7.55639 29.6261 7.57354L29.5508 7.55355C29.4833 7.5707 29.4574 7.61641 29.3899 7.63355L29.3146 7.61356C29.2809 7.62214 29.2472 7.63071 29.2472 7.63071C29.2134 7.63928 29.1719 7.61072 29.1719 7.61072C29.1382 7.61929 29.0785 7.67357 29.011 7.69072C28.9098 7.71644 28.7826 7.78787 28.6814 7.81358C28.4868 7.90216 28.2584 7.9993 28.0716 8.12501C27.8769 8.21358 27.6486 8.31073 27.4617 8.43643C27.3008 8.51643 27.1399 8.59643 26.979 8.67643C26.9453 8.685 26.8778 8.70215 26.8778 8.70215C26.8441 8.71072 26.8104 8.7193 26.8104 8.7193C26.7766 8.72787 26.7429 8.73644 26.7429 8.73644C26.7091 8.74502 26.6754 8.75359 26.6754 8.75359C26.6417 8.76216 26.6079 8.77073 26.6079 8.77073C26.5742 8.77931 26.5405 8.78788 26.5405 8.78788C26.5067 8.79645 26.473 8.80503 26.473 8.80503L26.447 8.85073L26.3718 8.83075C26.338 8.83932 26.3458 8.87645 26.3121 8.88503C26.2784 8.8936 26.2784 8.8936 26.2784 8.8936C26.1512 8.96503 25.9566 9.0536 25.8631 9.11645C25.8035 9.17073 25.7619 9.14217 25.7022 9.19645C25.6685 9.20502 25.6685 9.20502 25.6685 9.20502C25.5751 9.26788 25.4817 9.33073 25.3804 9.35645C25.3467 9.36502 25.3467 9.36502 25.3467 9.36502C25.2533 9.42787 25.1261 9.4993 25.0327 9.56215C24.9056 9.63358 24.7447 9.71358 24.6512 9.77643C24.5915 9.83071 24.4307 9.91071 24.3632 9.92786C24.2023 10.0079 24.0829 10.1164 23.922 10.1964C23.922 10.1964 23.922 10.1964 23.8883 10.205C23.8545 10.2136 23.8208 10.2221 23.8208 10.2221C23.7871 10.2307 23.7611 10.2764 23.7274 10.285C23.6002 10.3564 23.5327 10.3736 23.4393 10.4364C23.3459 10.4993 23.2525 10.5621 23.185 10.5793C23.0241 10.6593 22.9385 10.7593 22.7776 10.8393C22.6842 10.9021 22.5648 11.0107 22.4714 11.0735C22.2586 11.2449 21.9446 11.4421 21.7577 11.5678C21.724 11.5763 21.698 11.6221 21.6721 11.6678C21.4256 11.8477 21.1453 12.0363 20.9143 12.2906C20.8884 12.3363 20.8884 12.3363 20.8624 12.382C20.6315 12.6362 20.359 12.8619 20.1281 13.1162C19.8971 13.3704 19.6662 13.6247 19.4352 13.8789C19.3236 14.0246 19.2043 14.1332 19.0927 14.2789C18.9474 14.4332 18.8098 14.6246 18.6905 14.7331C18.6048 14.8331 18.5529 14.9245 18.4673 15.0245C18.0988 15.4702 17.681 15.8501 17.3281 16.3701C17.3826 16.63 17.5384 16.8642 17.6188 17.0784C17.6266 17.1156 17.6266 17.1156 17.6344 17.1527C17.6422 17.1898 17.6422 17.1898 17.6422 17.1898C17.6734 17.3384 17.8057 17.4612 17.8628 17.564C17.9121 17.6297 17.9355 17.7411 17.9848 17.8068C18.0341 17.8725 18.0912 17.9753 18.1406 18.041C18.1899 18.1067 18.2132 18.2181 18.2625 18.2838C18.3197 18.3867 18.369 18.4524 18.4183 18.518C18.4754 18.6209 18.5247 18.6866 18.574 18.7523C18.8777 19.1836 19.3059 19.7006 19.5681 20.1033C19.6096 20.1319 19.6252 20.2061 19.633 20.2433C19.6745 20.2718 19.6745 20.2718 19.716 20.3004C19.7991 20.3575 19.8562 20.4603 19.9055 20.526C19.947 20.5546 19.9886 20.5832 19.9886 20.5832C20.1702 20.7717 20.3597 20.9973 20.5336 21.1487C20.5829 21.2144 20.6582 21.2344 20.7075 21.3001C20.7568 21.3658 20.8399 21.4229 20.8892 21.4886C20.9307 21.5171 21.006 21.5371 21.0137 21.5743C21.0553 21.6028 21.0968 21.6314 21.0968 21.6314C21.1383 21.6599 21.1383 21.6599 21.1799 21.6885L21.1876 21.7256C21.1954 21.7628 21.2214 21.7171 21.2214 21.7171C21.3044 21.7742 21.3875 21.8313 21.429 21.8599L21.4368 21.897C21.4446 21.9341 21.4705 21.8884 21.4705 21.8884C21.5121 21.917 21.5951 21.9741 21.6288 21.9655C21.6704 21.9941 21.7872 22.0427 21.7872 22.0427C21.8209 22.0341 21.8287 22.0712 21.8287 22.0712C21.8702 22.0998 21.9377 22.0826 21.9792 22.1112C22.0129 22.1026 22.0545 22.1312 22.0882 22.1226C22.1635 22.1426 22.1635 22.1426 22.1972 22.134C22.1972 22.134 22.205 22.1712 22.2387 22.1626C22.2725 22.154 22.3062 22.1454 22.3399 22.1369C22.3737 22.1283 22.4152 22.1569 22.4489 22.1483C22.5502 22.1226 22.5943 21.994 22.628 21.9854C22.6877 21.9312 22.7474 21.8769 22.7733 21.8312C22.8071 21.8226 22.7655 21.794 22.7993 21.7855C22.8252 21.7398 22.8252 21.7398 22.859 21.7312C23.0484 21.4484 23.4921 21.0227 23.7205 20.9256C23.7542 20.917 23.7464 20.8798 23.7802 20.8713C23.8658 20.7713 23.9333 20.7541 23.993 20.6999C24.0527 20.6456 24.0864 20.637 24.1201 20.6284C24.3329 20.457 24.5379 20.2485 24.7429 20.0399C24.9479 19.8314 25.1685 19.6971 25.2723 19.5143C25.4695 19.2686 25.6667 19.0229 25.864 18.7772C26.043 18.6144 26.1805 18.423 26.3181 18.2316C26.6009 17.8859 26.9175 17.5317 27.2004 17.186L27.1926 17.1489C27.2782 17.0489 27.4832 16.8403 27.5014 16.7575L27.5273 16.7118C27.5792 16.6204 27.6571 16.4833 27.683 16.4375C27.7349 16.3461 27.7686 16.3376 27.7946 16.2919C27.7946 16.2919 27.779 16.2176 27.8127 16.209C27.8387 16.1633 27.8984 16.109 27.9243 16.0633L27.9165 16.0262C27.9762 15.9719 27.9684 15.9348 27.9944 15.8891C28.176 15.5691 28.3654 15.2863 28.5471 14.9663C28.6846 14.7749 28.7806 14.555 28.8766 14.335C28.9804 14.1522 29.0764 13.9322 29.1802 13.7494C29.2321 13.658 29.3022 13.4837 29.3618 13.4294C29.3956 13.4209 29.3541 13.3923 29.3541 13.3923C29.406 13.3009 29.4137 13.338 29.4319 13.2552L29.4241 13.2181C29.4423 13.1352 29.502 13.0809 29.5279 13.0352C29.5539 12.9895 29.572 12.9067 29.598 12.861L29.5902 12.8238C29.668 12.6867 29.7381 12.5125 29.79 12.421C29.8159 12.3753 29.8341 12.2925 29.86 12.2468L29.8522 12.2097C29.8782 12.164 29.9379 12.1097 29.9638 12.064L29.956 12.0268C29.982 11.9811 29.982 11.9811 30.0079 11.9354C30.0079 11.9354 30.0417 11.9268 30.0339 11.8897C30.0339 11.8897 30.0183 11.8154 30.052 11.8069C30.078 11.7612 30.1117 11.7526 30.1039 11.7155C30.1039 11.7155 30.0884 11.6412 30.1221 11.6326C30.148 11.5869 30.1818 11.5783 30.174 11.5412C30.174 11.5412 30.1584 11.4669 30.1921 11.4584C30.2181 11.4127 30.2518 11.4041 30.244 11.3669L30.2363 11.3298C30.2622 11.2841 30.2466 11.2098 30.2804 11.2013C30.3141 11.1927 30.2726 11.1641 30.2726 11.1641C30.2985 11.1184 30.3167 11.0356 30.3426 10.9899C30.3426 10.9899 30.3271 10.9156 30.3608 10.907C30.3867 10.8613 30.4205 10.8528 30.4127 10.8156C30.4127 10.8156 30.3971 10.7414 30.4308 10.7328C30.4568 10.6871 30.4905 10.6785 30.4827 10.6414L30.5087 10.5957C30.5424 10.5871 30.5009 10.5585 30.5009 10.5585C30.5268 10.5128 30.5606 10.5042 30.5528 10.4671C30.5528 10.4671 30.545 10.43 30.5372 10.3928C30.5372 10.3928 30.571 10.3843 30.5632 10.3471C30.5632 10.3471 30.5554 10.31 30.5476 10.2729C30.5476 10.2729 30.5813 10.2643 30.5735 10.2272C30.5735 10.2272 30.5658 10.19 30.558 10.1529C30.558 10.1529 30.5917 10.1443 30.5839 10.1072C30.5761 10.07 30.5683 10.0329 30.5605 9.99578C30.5605 9.99578 30.5943 9.98721 30.5865 9.95007C30.5865 9.95007 30.5787 9.91294 30.5709 9.8758C30.5709 9.8758 30.6046 9.86723 30.5969 9.8301C30.5969 9.8301 30.5891 9.79296 30.5813 9.75583C30.5813 9.75583 30.615 9.74726 30.6072 9.71012C30.6072 9.71012 30.5994 9.67299 30.5917 9.63585C30.5917 9.63585 30.6254 9.62728 30.6176 9.59015C30.6176 9.59015 30.6098 9.55301 30.602 9.51588C30.602 9.51588 30.6358 9.50731 30.628 9.47017C30.628 9.47017 30.6202 9.43304 30.6124 9.3959C30.6046 9.35877 30.6306 9.31306 30.6228 9.27593C30.6487 9.23022 30.6331 9.15595 30.6591 9.11025C30.6928 9.10167 30.6513 9.07311 30.6513 9.07311C30.6954 8.94456 30.7317 8.77888 30.7421 8.65891C30.7603 8.57607 30.7447 8.5018 30.7706 8.45609C30.7888 8.37325 30.8069 8.29041 30.8251 8.20757C30.8433 8.12472 30.8433 8.12472 30.8355 8.08759C30.8355 8.08759 30.8692 8.07902 30.8614 8.04188C30.8796 7.95904 30.864 7.88477 30.89 7.83907C30.9081 7.75623 30.9003 7.71909 30.8925 7.68196C30.8925 7.68196 30.9263 7.67338 30.9185 7.63625C30.9185 7.63625 30.9107 7.59912 30.9029 7.56198C30.9029 7.56198 30.9366 7.55341 30.9289 7.51627C30.9289 7.51627 30.9211 7.47914 30.9133 7.44201C30.9133 7.44201 30.947 7.43343 30.9392 7.3963C30.9314 7.35917 30.9236 7.32203 30.9159 7.2849C30.9262 7.16492 31.0041 7.0278 30.8795 6.94212C31.0949 7.12206 31.0015 7.18491 30.9003 7.21063ZM15.0371 22.8975C14.9437 22.9603 14.9255 23.0431 14.8658 23.0974C14.7802 23.1974 14.6946 23.2974 14.6427 23.3888C14.5908 23.4802 14.5051 23.5802 14.4532 23.6716C14.3676 23.7716 14.2742 23.8345 14.2223 23.9259C14.1886 23.9345 14.2301 23.963 14.1963 23.9716C14.1367 24.0259 14.1444 24.063 14.1185 24.1087C14.0406 24.2458 13.981 24.3001 13.9291 24.3915C13.9031 24.4372 13.8772 24.4829 13.859 24.5658C13.7293 24.7943 13.6333 25.0143 13.5373 25.2342C13.4854 25.3257 13.4075 25.4628 13.3816 25.5085C13.3556 25.5542 13.3193 25.7199 13.2934 25.7656C13.2674 25.8113 13.2674 25.8113 13.2415 25.857C13.2155 25.9027 13.2155 25.9027 13.1896 25.9484C13.1636 25.9941 13.1636 25.9941 13.1377 26.0398C13.1117 26.0855 13.1117 26.0855 13.0858 26.1312C13.0598 26.1769 13.0598 26.1769 13.0339 26.2227C13.0079 26.2684 13.0079 26.2684 12.982 26.3141C12.956 26.3598 12.956 26.3598 12.9301 26.4055C12.9041 26.4512 12.9041 26.4512 12.8782 26.4969C12.8522 26.5426 12.8522 26.5426 12.8263 26.5883C12.8003 26.634 12.8003 26.634 12.8003 26.634C12.8003 26.634 12.7666 26.6426 12.7744 26.6797C12.7744 26.6797 12.79 26.754 12.7562 26.7626C12.7303 26.8083 12.7043 26.854 12.6862 26.9368L12.694 26.974C12.694 26.974 12.6602 26.9825 12.668 27.0197C12.668 27.0197 12.6836 27.0939 12.6499 27.1025C12.6239 27.1482 12.598 27.1939 12.5798 27.2768C12.5798 27.2768 12.5954 27.351 12.5616 27.3596C12.5357 27.4053 12.5357 27.4053 12.5097 27.451C12.5097 27.451 12.5253 27.5253 12.4916 27.5339C12.4994 27.571 12.4656 27.5796 12.4397 27.6253C12.4137 27.671 12.3878 27.7167 12.3696 27.7995C12.3696 27.7995 12.3852 27.8738 12.3515 27.8824C12.3333 27.9652 12.3074 28.0109 12.3152 28.048C12.297 28.1309 12.2295 28.148 12.2451 28.2223C12.2451 28.2223 12.2607 28.2966 12.2269 28.3051C12.201 28.3509 12.1413 28.4051 12.1569 28.4794C12.1569 28.4794 12.1647 28.5165 12.1387 28.5622C12.1206 28.6451 12.0946 28.6908 12.1024 28.7279C12.1102 28.7651 12.0765 28.7736 12.0505 28.8193C12.0505 28.8193 12.0661 28.8936 12.0324 28.9022C12.0401 28.9393 12.0064 28.9479 11.9805 28.9936C11.9805 28.9936 11.996 29.0679 11.9623 29.0764C11.9623 29.0764 11.9286 29.085 11.9363 29.1221C11.8845 29.2136 11.8741 29.3335 11.8481 29.3792C11.8481 29.3792 11.8144 29.3878 11.8222 29.4249C11.83 29.4621 11.804 29.5078 11.8118 29.5449C11.7937 29.6278 11.7755 29.7106 11.7573 29.7934C11.7314 29.8392 11.747 29.9134 11.721 29.9591C11.6873 29.9677 11.7288 29.9963 11.7288 29.9963C11.7106 30.0791 11.7106 30.0791 11.6925 30.1619C11.6925 30.1619 11.6587 30.1705 11.6665 30.2077C11.6743 30.2448 11.6821 30.2819 11.6562 30.3276C11.6562 30.3276 11.6224 30.3362 11.6302 30.3733C11.6302 30.3733 11.638 30.4105 11.6458 30.4476C11.6536 30.4847 11.5939 30.539 11.6017 30.5761C11.6095 30.6133 11.6173 30.6504 11.5913 30.6961C11.5991 30.7333 11.5991 30.7333 11.5732 30.779C11.5732 30.779 11.5394 30.7875 11.5472 30.8247C11.555 30.8618 11.5628 30.8989 11.5368 30.9446C11.5446 30.9818 11.5446 30.9818 11.5187 31.0275C11.5187 31.0275 11.4849 31.0361 11.4927 31.0732C11.4668 31.1189 11.5083 31.1475 11.4824 31.1932C11.4902 31.2303 11.3967 31.2932 11.472 31.3131C11.5213 31.3788 11.6147 31.316 11.6485 31.3074C11.6822 31.2988 11.7237 31.3274 11.7497 31.2817C11.7834 31.2731 11.8509 31.256 11.8924 31.2845L11.9184 31.2388C11.9521 31.2303 11.9858 31.2217 12.0196 31.2131L12.0455 31.1674C12.0793 31.1588 12.113 31.1503 12.1467 31.1417L12.1727 31.096C12.2064 31.0874 12.2479 31.116 12.2479 31.116C12.3492 31.0902 12.4504 31.0645 12.5516 31.0388C12.7203 30.9959 12.9227 30.9445 13.1251 30.8931C13.1926 30.8759 13.286 30.8131 13.3535 30.7959C13.4132 30.7416 13.5818 30.6988 13.6571 30.7188C13.6908 30.7102 13.7246 30.7016 13.7505 30.6559C13.7843 30.6473 13.7843 30.6473 13.7843 30.6473C13.9114 30.5759 14.0386 30.5045 14.132 30.4416C14.2929 30.3616 14.446 30.2445 14.5913 30.0902C14.7107 29.9817 14.8898 29.8188 15.0091 29.7103L15.0429 29.7017C15.3153 29.476 15.5203 29.2675 15.6838 29.0303C15.8629 28.8675 15.9745 28.7218 16.1198 28.5675C16.3507 28.3133 16.6751 27.9962 16.8386 27.7591C16.9502 27.6134 17.0358 27.5134 17.1292 27.4505C17.163 27.442 17.1214 27.4134 17.1214 27.4134C17.233 27.2677 17.4302 27.022 17.4484 26.9392C17.4406 26.9021 17.5081 26.8849 17.5003 26.8478L17.5262 26.8021C17.5522 26.7564 17.5522 26.7564 17.5781 26.7107L17.6041 26.6649C17.63 26.6192 17.63 26.6192 17.656 26.5735L17.6819 26.5278C17.7079 26.4821 17.7416 26.4735 17.7338 26.4364C17.7598 26.3907 17.7598 26.3907 17.7935 26.3821C17.931 26.1907 18.1023 25.9908 18.1646 25.7794C18.1905 25.7337 18.2761 25.6337 18.219 25.5308C18.1256 25.5937 17.9647 25.6737 17.905 25.728C17.7779 25.7994 17.6663 25.9451 17.6066 25.9994L17.5807 26.0451L17.5469 26.0537C17.4872 26.1079 17.4276 26.1622 17.3601 26.1794L17.3263 26.1879L17.3004 26.2336C17.1473 26.3508 16.9864 26.4308 16.867 26.5393C16.8073 26.5936 16.7477 26.6479 16.6802 26.665C16.5608 26.7736 16.4414 26.8822 16.3143 26.9536C16.2468 26.9707 16.1456 26.9965 16.1196 27.0422C16.0937 27.0879 16.0522 27.0593 16.0184 27.0679C15.9925 27.1136 15.951 27.085 15.9172 27.0936C15.8835 27.1022 15.8835 27.1022 15.8835 27.1022C15.7823 27.1279 15.7304 27.2193 15.6707 27.2736C15.6032 27.2907 15.5357 27.3079 15.4761 27.3622C15.4086 27.3793 15.3749 27.3879 15.3489 27.4336C15.3489 27.4336 15.3489 27.4336 15.3152 27.4422C15.2814 27.4507 15.2814 27.4507 15.2814 27.4507C15.214 27.4679 15.1465 27.485 15.0712 27.465C14.9207 27.4251 14.5807 27.1594 14.6248 27.0309L14.5833 27.0023C14.5677 26.9281 14.5599 26.8909 14.5443 26.8167C14.5365 26.7795 14.5288 26.7424 14.521 26.7053C14.5132 26.6681 14.5132 26.6681 14.5132 26.6681C14.4976 26.5939 14.4898 26.5567 14.4742 26.4825C14.4664 26.4453 14.5002 26.4367 14.4924 26.3996C14.4846 26.3625 14.4846 26.3625 14.4768 26.3253C14.469 26.2882 14.495 26.2425 14.495 26.2425C14.4794 26.1682 14.4379 26.1397 14.4223 26.0654L14.456 26.0568L14.4145 26.0283C14.4067 25.9911 14.4405 25.9826 14.4327 25.9454C14.4015 25.7969 14.3729 25.4912 14.4586 25.3913C14.4923 25.3827 14.4508 25.3541 14.4508 25.3541C14.4767 25.3084 14.5027 25.2627 14.5286 25.217C14.5208 25.1799 14.5131 25.1427 14.539 25.097C14.5312 25.0599 14.5649 25.0513 14.5649 25.0513C14.5831 24.9685 14.5831 24.9685 14.6013 24.8856C14.5935 24.8485 14.6272 24.8399 14.6532 24.7942C14.6791 24.7485 14.6635 24.6742 14.6557 24.6371C14.6817 24.5914 14.6661 24.5171 14.6583 24.48C14.6765 24.3972 14.7284 24.3058 14.7128 24.2315C14.7128 24.2315 14.7465 24.2229 14.7388 24.1858L14.731 24.1486L14.7569 24.1029C14.7829 24.0572 14.7751 24.0201 14.7673 23.983C14.7673 23.983 14.801 23.9744 14.7932 23.9373C14.7932 23.9373 14.7777 23.863 14.8114 23.8544C14.8477 23.6887 14.9852 23.4973 15.0293 23.3688C15.0216 23.3316 15.0553 23.3231 15.0812 23.2774C15.0812 23.2774 15.0735 23.2402 15.0657 23.2031C15.0579 23.166 15.1254 23.1488 15.0838 23.1203C15.1305 22.8346 15.0786 22.926 15.0371 22.8975ZM17.993 21.9116C17.9333 21.9659 17.7542 22.1288 17.7205 22.1373C17.7283 22.1745 17.7283 22.1745 17.6686 22.2288C17.5829 22.3287 17.5129 22.503 17.4532 22.5573C17.4195 22.5659 17.461 22.5944 17.461 22.5944C17.4091 22.6858 17.3494 22.7401 17.3313 22.8229C17.2794 22.9144 17.2275 23.0058 17.1678 23.0601C17.0821 23.16 16.955 23.2315 16.8693 23.3315C16.8175 23.4229 16.7811 23.5886 16.7214 23.6428C16.6877 23.6514 16.7292 23.68 16.7292 23.68C16.7033 23.7257 16.6436 23.78 16.6177 23.8257C16.6177 23.8257 16.6332 23.8999 16.5995 23.9085C16.5735 23.9542 16.5398 23.9628 16.5476 23.9999C16.5217 24.0456 16.5035 24.1285 16.4775 24.1742C16.4516 24.2199 16.4334 24.3027 16.3997 24.3113C16.366 24.3199 16.4075 24.3484 16.4075 24.3484C16.3556 24.4398 16.2103 24.5941 16.3426 24.7169C16.4516 24.7283 16.5373 24.6284 16.6385 24.6026C17.0122 24.3512 17.321 23.9598 17.7388 23.5799C17.8322 23.517 17.8919 23.4628 17.9775 23.3628C18.0631 23.2628 18.1566 23.1999 18.2422 23.0999C18.3278 22.9999 18.3797 22.9085 18.4316 22.8171C18.4913 22.7628 18.5173 22.7171 18.5769 22.6629C18.6366 22.6086 18.7041 22.5914 18.73 22.5457C18.756 22.5 18.7819 22.4543 18.8416 22.4C18.9869 22.2458 19.1478 22.1658 19.1764 21.9629C19.07 21.7944 18.8468 21.5773 18.6729 21.426C18.4289 21.4488 18.2057 21.7402 17.993 21.9116ZM27.2266 20.1911C27.089 20.3825 26.91 20.5453 26.7128 20.791C26.404 21.1824 25.9602 21.608 25.6436 21.9623C25.6177 22.008 25.584 22.0166 25.558 22.0623C25.5321 22.108 25.5398 22.1451 25.5061 22.1537C25.4802 22.1994 25.4386 22.1708 25.4386 22.1708C25.4049 22.1794 25.3789 22.2251 25.353 22.2708C25.2336 22.3794 25.1143 22.4879 25.0546 22.5422C24.9352 22.6508 24.8496 22.7508 24.7639 22.8507C24.6108 22.9679 24.4162 23.0565 24.3383 23.1936L24.3461 23.2307C24.2605 23.3307 24.193 23.3478 24.2086 23.4221L24.1827 23.4678L24.1904 23.505L24.1645 23.5507L24.1723 23.5878L24.1463 23.6335L24.1541 23.6706C24.1541 23.6706 24.1204 23.6792 24.1282 23.7163C24.136 23.7535 24.1178 23.8363 24.1178 23.8363L24.0997 23.9192C24.1412 23.9477 24.0815 24.002 24.0893 24.0391L24.1308 24.0677C24.1386 24.1048 24.1126 24.1505 24.1126 24.1505C24.1204 24.1877 24.1698 24.2534 24.1775 24.2905L24.1516 24.3362C24.1594 24.3733 24.2009 24.4019 24.1672 24.4105C24.1827 24.4847 24.1542 24.6876 24.1283 24.7333C24.0945 24.7418 24.1361 24.7704 24.1361 24.7704C24.1438 24.8075 24.1101 24.8161 24.0842 24.8618C24.0842 24.8618 24.0919 24.8989 24.0997 24.9361C24.1075 24.9732 24.0738 24.9818 24.0478 25.0275C24.0297 25.1103 24.079 25.176 24.0453 25.1846C24.0115 25.1932 24.053 25.2217 24.053 25.2217C24.0608 25.2589 24.0271 25.2674 24.0012 25.3132C24.0012 25.3132 24.0089 25.3503 24.0167 25.3874C24.0245 25.4246 23.9908 25.4331 23.9648 25.4788L23.9726 25.516C23.9804 25.5531 23.9285 25.6445 23.8948 25.6531C23.8688 25.6988 23.8844 25.7731 23.8585 25.8188C23.8585 25.8188 23.8247 25.8273 23.8325 25.8645C23.8403 25.9016 23.8403 25.9016 23.8144 25.9473C23.7884 25.993 23.7625 26.0387 23.7365 26.0844C23.7365 26.0844 23.7443 26.1216 23.7521 26.1587C23.7521 26.1587 23.7183 26.1673 23.7261 26.2044C23.7002 26.2501 23.7339 26.2416 23.7339 26.2416C23.708 26.2873 23.6898 26.3701 23.6976 26.4072C23.6976 26.4072 23.6639 26.4158 23.6717 26.4529C23.6717 26.4529 23.6872 26.5272 23.6535 26.5358C23.6275 26.5815 23.6016 26.6272 23.5757 26.6729C23.5497 26.7186 23.5653 26.7929 23.6146 26.8586C23.7755 26.7786 23.8793 26.5957 23.9987 26.4872C24.118 26.3786 24.2296 26.2329 24.3412 26.0872L24.3334 26.0501C24.3931 25.9958 24.4528 25.9415 24.4787 25.8958L24.4709 25.8587C24.5228 25.7673 24.5825 25.713 24.6422 25.6587C24.7538 25.513 24.8654 25.3673 24.9769 25.2216C25.0366 25.1674 25.0548 25.0845 25.1145 25.0302C25.1482 25.0217 25.1404 24.9845 25.1742 24.976C25.2079 24.9674 25.1664 24.9388 25.1664 24.9388C25.1923 24.8931 25.2261 24.8845 25.252 24.8388C25.2857 24.8303 25.2442 24.8017 25.2442 24.8017C25.2961 24.7103 25.3298 24.7017 25.3558 24.656C25.3895 24.6474 25.348 24.6189 25.348 24.6189C25.3999 24.5275 25.4414 24.556 25.4259 24.4818L25.4518 24.436C25.4777 24.3903 25.47 24.3532 25.5296 24.2989C25.5634 24.2904 25.5219 24.2618 25.5219 24.2618C25.5738 24.1704 25.6075 24.1618 25.6334 24.1161C25.6672 24.1075 25.6256 24.079 25.6256 24.079C25.6516 24.0333 25.6775 23.9876 25.7035 23.9418C25.7813 23.8047 25.9111 23.5762 25.963 23.4848C25.9889 23.4391 26.0149 23.3934 26.0149 23.3934C26.0408 23.3477 26.0746 23.3391 26.0668 23.3019L26.1005 23.2934C26.1342 23.2848 26.0927 23.2562 26.0927 23.2562C26.1109 23.1734 26.1706 23.1191 26.1628 23.082C26.1887 23.0363 26.2147 22.9906 26.2328 22.9077L26.2588 22.862C26.2847 22.8163 26.2769 22.7792 26.3029 22.7335C26.3366 22.7249 26.2951 22.6963 26.2951 22.6963C26.321 22.6506 26.3729 22.5592 26.3652 22.5221C26.3989 22.5135 26.3574 22.4849 26.3574 22.4849C26.3755 22.4021 26.4352 22.3478 26.4534 22.265L26.4456 22.2279C26.4715 22.1821 26.4559 22.1079 26.4897 22.0993C26.5156 22.0536 26.526 21.9336 26.526 21.9336L26.552 21.8879L26.5442 21.8508L26.5961 21.7594L26.622 21.7137C26.6402 21.6308 26.6661 21.5851 26.6999 21.5765L26.7336 21.568C26.7673 21.5594 26.7258 21.5308 26.7258 21.5308C26.7518 21.4851 26.8036 21.3937 26.7959 21.3566L26.8218 21.3109C26.84 21.228 26.8659 21.1823 26.8997 21.1737C26.9256 21.128 26.9775 21.0366 27.0034 20.9909C27.0294 20.9452 27.0475 20.8624 27.0813 20.8538C27.1072 20.8081 27.0994 20.771 27.1591 20.7167C27.1929 20.7081 27.1513 20.6795 27.1513 20.6795C27.2032 20.5881 27.2292 20.5424 27.2214 20.5053C27.2396 20.4224 27.2655 20.3767 27.2577 20.3396C27.2759 20.2568 27.3356 20.2025 27.2785 20.0997C27.3226 19.9711 27.2785 20.0997 27.2266 20.1911Z" fill="black"/>
<path fill-rule="evenodd" clip-rule="evenodd" d="M27.4083 14.0652C27.3668 14.0367 27.3071 14.0909 27.2812 14.1366C27.2812 14.1366 27.2734 14.0995 27.2474 14.1452C27.2215 14.1909 27.1047 14.1424 27.045 14.1966C27.045 14.1966 26.8348 14.211 26.827 14.1738C26.7855 14.1453 26.7933 14.1824 26.7517 14.1538C26.7517 14.1538 26.7439 14.1167 26.7102 14.1253L26.6765 14.1338C26.6765 14.1338 26.6687 14.0967 26.6349 14.1053C26.5675 14.1224 26.5597 14.0853 26.4844 14.0653C26.4429 14.0367 26.3676 14.0168 26.2924 13.9968L26.2586 14.0053C26.2171 13.9768 26.1834 13.9854 26.1418 13.9568C26.1003 13.9282 26.0666 13.9368 26.0251 13.9082C25.9498 13.8883 25.9264 13.7769 25.8434 13.7197C25.8356 13.6826 25.8096 13.7283 25.8018 13.6912C25.6202 13.5027 25.3658 13.1371 25.2023 12.8657C25.1037 12.7343 25.0466 12.6315 25.031 12.5572C25.0232 12.5201 25.0154 12.4829 25.0076 12.4458C24.9842 12.3344 25.0024 12.2516 25.0128 12.1316C25.005 12.0945 24.9894 12.0202 25.0154 11.9745C25.0154 11.9745 25.0491 11.9659 25.0413 11.9288L25.0335 11.8916C25.0335 11.8916 25.0673 11.8831 25.0595 11.8459L25.0517 11.8088C25.0776 11.7631 25.1036 11.7174 25.1295 11.6717L25.1217 11.6345C25.1477 11.5888 25.1477 11.5888 25.1736 11.5431C25.2255 11.4517 25.2437 11.3689 25.3034 11.3146C25.3034 11.3146 25.3371 11.306 25.3293 11.2689L25.3215 11.2318C25.3215 11.2318 25.3553 11.2232 25.3475 11.186C25.3319 11.1118 25.4175 11.0118 25.4772 10.9575C25.5291 10.8661 25.6407 10.7204 25.7938 10.6033C25.7938 10.6033 25.8353 10.6318 25.8275 10.5947C25.8872 10.5404 25.9391 10.449 26.0325 10.3862C26.0325 10.3862 26.0741 10.4147 26.0663 10.3776C26.1 10.369 26.126 10.3233 26.1519 10.2776C26.1519 10.2776 26.1597 10.3147 26.1856 10.269C26.1856 10.269 26.2791 10.2062 26.3128 10.1976L26.3206 10.2347L26.3465 10.189L26.3543 10.2262C26.3881 10.2176 26.414 10.1719 26.4478 10.1633C26.4478 10.1633 26.4555 10.2004 26.4815 10.1547C26.5412 10.1004 26.658 10.149 26.7254 10.1318C26.7592 10.1233 26.7851 10.0776 26.7929 10.1147C26.8267 10.1061 26.8682 10.1347 26.9019 10.1261C26.9357 10.1175 26.9616 10.0718 26.9694 10.109C27.0369 10.0918 27.1537 10.1404 27.2211 10.1232C27.2886 10.1061 27.3639 10.1261 27.4729 10.1375L27.5403 10.1203C27.5819 10.1489 27.5819 10.1489 27.6571 10.1689L27.6909 10.1603L27.7324 10.1889C27.7739 10.2174 27.7661 10.1803 27.8492 10.2374L27.9322 10.2945C27.966 10.286 28.0568 10.3802 28.1399 10.4374C28.306 10.5516 28.6875 10.8458 28.7342 11.0686C28.7498 11.1428 28.7238 11.1886 28.7809 11.2914C28.7887 11.3285 28.8043 11.4028 28.8536 11.4685C28.9029 11.5342 28.9185 11.6084 28.9341 11.6827L28.9419 11.7198C28.9497 11.757 28.9912 11.7855 28.999 11.8227L28.973 11.8684C28.9808 11.9055 29.0224 11.9341 28.9964 11.9798C29.0042 12.0169 28.9445 12.0712 28.9601 12.1455C28.9497 12.2654 28.9731 12.3768 28.9627 12.4968C28.9446 12.5797 28.8927 12.6711 28.8408 12.7625L28.8485 12.7996C28.8226 12.8453 28.7967 12.891 28.7707 12.9367C28.7448 12.9825 28.7525 13.0196 28.7266 13.0653C28.7266 13.0653 28.6929 13.0739 28.7006 13.111C28.7006 13.111 28.7162 13.1853 28.6825 13.1938C28.6565 13.2395 28.5709 13.3395 28.5112 13.3938C28.4593 13.4852 28.4412 13.5681 28.3737 13.5852C28.2881 13.6852 28.1272 13.7652 28 13.8366C27.9403 13.8909 27.9066 13.8995 27.8391 13.9166C27.8391 13.9166 27.7794 13.9709 27.7716 13.9338C27.7379 13.9423 27.6886 13.8767 27.6626 13.9224C27.6341 14.1252 27.5095 14.0395 27.4083 14.0652ZM27.2213 11.6486L27.1953 11.6943L27.1875 11.6572L27.1616 11.7029L27.1538 11.6658L27.1278 11.7115C27.0266 11.7372 26.7567 11.8058 26.7541 11.9629L26.7282 12.0086C26.7022 12.0543 26.71 12.0914 26.7178 12.1286L26.6659 12.22C26.64 12.2657 26.64 12.2657 26.64 12.2657L26.614 12.3114C26.5959 12.3942 26.5777 12.4771 26.627 12.5428C26.6763 12.6085 26.8191 12.6113 26.8528 12.6027C26.9203 12.5856 27.063 12.5884 27.0968 12.5799C27.1227 12.5341 27.198 12.5541 27.198 12.5541C27.3251 12.4827 27.3692 12.3542 27.3874 12.2713C27.4133 12.2256 27.473 12.1713 27.4575 12.0971C27.5016 11.9685 27.5041 11.8114 27.4055 11.68C27.2965 11.6686 27.2213 11.6486 27.2213 11.6486Z" fill="black"/>
<path fill-rule="evenodd" clip-rule="evenodd" d="M21.0648 15.5879C21.057 15.5507 21.0907 15.5421 21.0907 15.5421C21.1167 15.4964 21.1686 15.405 21.2283 15.3507C21.3139 15.2508 21.5111 15.0051 21.6902 14.8422C21.7499 14.788 21.8173 14.7708 21.877 14.7165C21.9367 14.6622 22.0301 14.5994 22.0898 14.5451C22.0898 14.5451 22.0976 14.5822 22.1235 14.5365C22.1832 14.4823 22.1832 14.4823 22.2507 14.4651C22.2844 14.4565 22.3182 14.448 22.3779 14.3937C22.4116 14.3851 22.4375 14.3394 22.4713 14.3308C22.505 14.3223 22.5465 14.3508 22.5465 14.3508C22.5803 14.3422 22.6062 14.2965 22.614 14.3337C22.6478 14.3251 22.6893 14.3537 22.7645 14.3737C22.941 14.3679 23.1097 14.3251 23.2862 14.3193C23.3874 14.2936 23.4549 14.2765 23.5639 14.2879C23.5976 14.2793 23.6807 14.3364 23.7144 14.3279C23.7481 14.3193 23.7481 14.3193 23.7897 14.3478C23.8234 14.3393 23.8312 14.3764 23.8727 14.405C23.8727 14.405 23.9402 14.3878 23.948 14.4249C23.9895 14.4535 23.9895 14.4535 24.031 14.4821C24.031 14.4821 24.0985 14.4649 24.1063 14.5021C24.1478 14.5306 24.1893 14.5592 24.2646 14.5792L24.2983 14.5706C24.2983 14.5706 24.3061 14.6077 24.3399 14.5992C24.3399 14.5992 24.4073 14.582 24.4151 14.6191C24.4151 14.6191 24.4229 14.6563 24.4566 14.6477C24.4644 14.6848 24.4982 14.6763 24.5397 14.7048C24.5475 14.742 24.5812 14.7334 24.6227 14.7619C24.6227 14.7619 24.7473 14.8476 24.7889 14.8762C24.8382 14.9419 24.9446 15.1104 25.0017 15.2132L25.0095 15.2504C25.0588 15.3161 25.1418 15.3732 25.2067 15.5132C25.2145 15.5503 25.2145 15.5503 25.2145 15.5503C25.2301 15.6246 25.2716 15.6531 25.295 15.7645C25.295 15.7645 25.2613 15.7731 25.3028 15.8017C25.3028 15.8017 25.3106 15.8388 25.3184 15.8759L25.3002 15.9588C25.3158 16.033 25.3651 16.0987 25.3807 16.173C25.3885 16.2101 25.4378 16.2758 25.4456 16.313C25.4533 16.3501 25.4767 16.4615 25.4923 16.5358C25.4741 16.6186 25.4638 16.7386 25.4534 16.8586C25.4612 16.8957 25.4768 16.97 25.4508 17.0157C25.4508 17.0157 25.4171 17.0242 25.4249 17.0614C25.4327 17.0985 25.4067 17.1442 25.3885 17.2271C25.3963 17.2642 25.3626 17.2728 25.3366 17.3185C25.3366 17.3185 25.3522 17.3927 25.3185 17.4013C25.2925 17.447 25.2744 17.5299 25.2484 17.5756C25.2562 17.6127 25.2225 17.6213 25.1965 17.667C25.1965 17.667 25.2121 17.7412 25.1784 17.7498C25.1265 17.8412 25.0668 17.8955 25.0149 17.9869L25.0227 18.0241C24.9967 18.0698 24.9967 18.0698 24.9708 18.1155C24.9448 18.1612 24.9448 18.1612 24.9111 18.1698C24.8774 18.1783 24.9189 18.2069 24.8852 18.2155C24.7476 18.4069 24.5348 18.5783 24.348 18.704C24.2546 18.7668 24.1949 18.8211 24.1274 18.8383L24.1015 18.884C24.0677 18.8925 24.0262 18.864 24.0262 18.864C23.9925 18.8726 23.9328 18.9268 23.899 18.9354C23.8653 18.944 23.8238 18.9154 23.8238 18.9154C23.7563 18.9326 23.7304 18.9783 23.6629 18.9954C23.6629 18.9954 23.6551 18.9583 23.6291 19.004C23.5954 19.0126 23.5617 19.0211 23.5279 19.0297C23.4267 19.0554 23.2425 19.024 23.0997 19.0212C23.066 19.0298 23.0245 19.0012 23.0245 19.0012L22.9985 19.0469C22.9648 19.0555 22.9155 18.9898 22.8895 19.0355C22.8558 19.0441 22.6793 19.0498 22.6456 19.0584C22.6456 19.0584 22.6378 19.0212 22.604 19.0298C22.5366 19.047 22.495 19.0184 22.412 18.9613L22.3783 18.9698C22.3367 18.9413 22.303 18.9499 22.2615 18.9213C22.2199 18.8927 22.194 18.9384 22.1862 18.9013C22.1109 18.8813 22.0279 18.8242 21.9786 18.7585C21.8955 18.7014 21.8203 18.6814 21.7787 18.6528C21.7294 18.5871 21.6801 18.5214 21.623 18.4186L21.5815 18.3901C21.5996 18.3072 21.3271 18.0244 21.2622 17.8845C21.2544 17.8473 21.2544 17.8473 21.2466 17.8102C21.1895 17.7074 21.1065 17.6503 21.0494 17.5474L21.0079 17.5189L21.0416 17.5103L21.0001 17.4817C20.9923 17.4446 20.9845 17.4075 20.9352 17.3418C20.9274 17.3046 20.9611 17.2961 20.9611 17.2961L20.9196 17.2675L20.9533 17.2589L20.9118 17.2304L20.9455 17.2218L20.904 17.1932L20.9378 17.1847L20.8962 17.1561C20.8884 17.119 20.8884 17.119 20.9144 17.0733C20.9066 17.0361 20.9326 16.9904 20.9248 16.9533C20.9092 16.879 20.8936 16.8047 20.9118 16.7219C20.9299 16.6391 20.9896 16.5848 21.0078 16.5019L21 16.4648C21.0337 16.4562 21.0181 16.382 21.0441 16.3363C21.0441 16.3363 21.0804 16.1706 21.1141 16.162C21.0778 15.8192 21.0129 15.6793 21.0648 15.5879ZM23.2709 17.2958C23.3902 17.1873 23.5459 16.913 23.5641 16.8302L23.5978 16.8216C23.6316 16.813 23.59 16.7845 23.59 16.7845C23.6082 16.7016 23.6679 16.6474 23.6601 16.6102C23.6523 16.5731 23.686 16.5645 23.686 16.5645C23.7301 16.436 23.7224 16.3988 23.7068 16.3246C23.699 16.2874 23.7249 16.2417 23.7171 16.2046C23.7094 16.1675 23.6678 16.1389 23.66 16.1018C23.6523 16.0646 23.6523 16.0646 23.6445 16.0275C23.6367 15.9904 23.6367 15.9904 23.6367 15.9904C23.5562 15.7761 23.4732 15.719 23.3304 15.7162C23.1124 15.6933 22.5519 16.0705 22.404 16.3818C22.3858 16.4647 22.3339 16.5561 22.3158 16.6389C22.2898 16.6846 22.2976 16.7218 22.3054 16.7589C22.3132 16.796 22.2794 16.8046 22.2872 16.8417C22.295 16.8789 22.295 16.8789 22.295 16.8789C22.3677 17.056 22.526 17.1331 22.6818 17.3673C22.9075 17.4273 23.1178 17.413 23.2709 17.2958Z" fill="black"/>
<path d="M35.0136 2.7684C30.6817 -0.594408 25.1641 -0.393643 20.2394 0.760752C16.5458 1.614 12.9434 3.11973 9.75148 5.27795C9.56908 5.07719 9.29549 4.9768 8.93069 4.9768C4.37073 5.47871 1.77156 9.69477 0.631571 14.2622C-0.873214 20.3353 0.357974 27.1613 3.82354 32.1302C6.87871 36.4968 11.4843 39.1569 16.409 39.8596C22.2002 40.7129 27.9457 37.5508 32.4145 33.7865C36.792 30.1225 41.0328 25.3042 41.124 18.8797C41.1696 15.8181 40.1664 12.4553 39.3 9.54419C38.4336 6.93426 37.0656 4.37451 35.0136 2.7684ZM32.7337 30.2731C25.6201 37.2497 15.7706 40.4619 7.8363 33.1842C4.09714 29.7712 2.36435 24.8023 2.31875 19.5824C2.27315 16.7717 2.91155 13.0576 4.55313 10.4978C4.64433 11.4515 5.73872 12.2043 6.46831 11.3511C12.3507 4.72585 23.1577 0.359223 31.3201 3.42088C36.1536 5.17757 37.3392 10.799 38.3424 15.6173C39.6648 21.8912 36.8376 26.2076 32.7337 30.2731Z" fill="black"/>
</svg>
